<?xml version="1.0" encoding="UTF-8"?>
<svg width="134.94mm" height="63.5mm" version="1.1" viewBox="0 0 134.94 63.5" xmlns="http://www.w3.org/2000/svg">
 <g>
  <circle cx="31.75" cy="31.75" r="31.75" fill="#808080"/>
  <circle cx="31.75" cy="31.75" r="29.104"/>
  <path d="m7.9375 15.875h7.9375l13.229 13.229h5.2917l13.229-13.229h7.9375v18.521l-21.167 21.167v-2.6458h-5.2917v2.6458l-21.167-21.167v-18.521" fill="#808080"/>
  <g transform="translate(-5.2917 2.6458)" fill="#fff">
   <path d="m13.229 31.75v5.2917l18.521 18.521h2.6458v-2.6458z"/>
   <path d="m18.521 15.875v10.583h10.583z"/>
   <path d="m55.562 15.875-10.583 10.583h10.583z"/>
   <path d="m60.854 31.75v5.2917l-18.521 18.521h-2.6458v-2.6458z"/>
  </g>
  <g transform="translate(-5.2917 2.6458)">
   <rect x="23.812" y="34.396" width="5.2917" height="5.2917"/>
   <rect x="44.979" y="34.396" width="5.2917" height="5.2917"/>
   <rect x="34.396" y="50.271" width="5.2917" height="5.2917"/>
  </g>
 </g>
 <g transform="scale(.98616 1.014)" stroke-width=".26727" aria-label="ÉDITIONS DU RENARD SPATIAL">
  <path d="m68.29 3.7598v10.372h5.3785v-1.7187h-3.3486v-2.6818h2.9337v-1.7187h-2.9337v-2.4744h3.2893v-1.778zm1.1853-1.7336 2.7115-1.215 0.56304 1.6447-2.8004 0.85937z"/>
  <path d="m76.784 12.413h1.3335q0.41487-0.51858 0.65193-1.5113 0.25188-0.99272 0.25188-1.9706 0-2.3262-0.87418-3.393h-1.3631zm-2.0151 1.7187v-10.372h4.2968q2.104 1.8669 2.104 5.0673 0 3.1856-1.9706 5.3044z"/>
  <path d="m82.286 14.131v-10.372h2.0299v10.372z"/>
  <path d="m87.372 5.5378h-2.2373v-1.778h6.4897v1.778h-2.2373v8.5937h-2.0151z"/>
  <path d="m92.444 14.131v-10.372h2.0299v10.372z"/>
  <path d="m100.69 3.7598q1.0372 0.84455 1.5409 2.267 0.50376 1.4224 0.50376 2.9337 0 1.4965-0.48895 2.8448t-1.5558 2.3262h-3.0522q-1.0668-0.9779-1.5558-2.3262t-0.48895-2.8448q0-1.5113 0.50377-2.9337 0.50377-1.4224 1.5409-2.267zm-2.0595 8.653h1.0668q0.37042-0.42968 0.6223-1.3928 0.2667-0.9779 0.2667-2.0595 0-1.0816-0.25188-2.0299-0.25189-0.96309-0.6223-1.3928h-1.0816q-0.37042 0.42968-0.63712 1.3928-0.25188 0.94827-0.25188 2.0299 0 1.0816 0.25188 2.0595 0.2667 0.96309 0.63712 1.3928z"/>
  <path d="m108.47 14.131-2.7707-5.7341-0.0741 0.029633 0.0889 1.7484v3.9561h-1.8669v-10.372h1.4965l2.7263 5.9563 0.0741-0.029633-0.16298-1.8225v-4.1042h1.8669v10.372z"/>
  <path d="m112.18 3.7598h3.556v1.778h-2.8448l-0.0444 0.0889 2.3707 4.3265q0.72601 1.3039 0.72601 1.9854 0 1.4965-0.99271 2.1929h-3.9264v-1.7187h3.0671l0.0445-0.0889-2.667-4.7858q-0.57785-1.0372-0.57785-1.6891 0-1.5409 1.289-2.0892z"/>
  <path d="m121.28 12.413h1.3335q0.41486-0.51858 0.65193-1.5113 0.25189-0.99272 0.25189-1.9706 0-2.3262-0.87419-3.393h-1.3631zm-2.0151 1.7187v-10.372h4.2968q2.104 1.8669 2.104 5.0673 0 3.1856-1.9706 5.3044z"/>
  <path d="m129.35 12.413h1.2446q0.32597-0.3556 0.45932-0.7112 0.14817-0.37042 0.14817-1.0816v-6.8601h2.0299v6.1193q0 0.75565-0.0445 1.1853-0.0296 0.41487-0.1778 1.0224-0.25189 1.0816-1.3928 2.0447h-3.2893q-1.1409-0.93345-1.3928-2.0447-0.22225-0.90382-0.22225-2.2077v-6.1193h2.0299v6.8601q0 0.7112 0.13335 1.0816 0.14816 0.3556 0.47413 0.7112z"/>
  <path d="m68.674 19.879h6.0666q1.4368 0.47894 2.4403 1.7789 1.0263 1.2772 1.0263 3.1473 0 3.0561-2.4175 4.4929l2.3035 6.5455h-3.1929l-1.9386-5.8157h-1.2088v5.8157h-3.0789zm3.0789 2.7368v4.8578h1.9614q0.38771-0.09123 0.84384-0.77542 0.47894-0.707 0.47894-1.6421 0-0.93507-0.41052-1.6421-0.38771-0.707-0.77542-0.79823z"/>
  <path d="m79.849 35.843v-15.965h8.1876v2.7368h-5.0631v3.8087h4.5157v2.6456h-4.5157v4.128h5.1543v2.6456z"/>
  <path d="m96.999 35.843-4.2648-8.8262-0.11403 0.04561 0.13684 2.6912v6.0894h-2.8736v-15.965h2.3035l4.1964 9.1683 0.11403-0.04561-0.25087-2.8052v-6.3174h2.8736v15.965z"/>
  <path d="m108.11 35.843-0.47893-2.5315h-3.6034l-0.47894 2.5315h-3.1017l3.0789-15.965h4.721l2.9192 15.965zm-2.3263-13-0.88946 5.3139-0.50174 2.714h2.8508l-0.52455-2.714-0.88946-5.3139z"/>
  <path d="m112.49 19.879h6.0666q1.4368 0.47894 2.4403 1.7789 1.0263 1.2772 1.0263 3.1473 0 3.0561-2.4175 4.4929l2.3035 6.5455h-3.1929l-1.9386-5.8157h-1.2088v5.8157h-3.0789zm3.0789 2.7368v4.8578h1.9614q0.38772-0.09123 0.84385-0.77542 0.47894-0.707 0.47894-1.6421 0-0.93507-0.41052-1.6421-0.38771-0.707-0.77543-0.79823z"/>
  <path d="m126.76 33.198h2.0526q0.63858-0.79823 1.0035-2.3263 0.38771-1.528 0.38771-3.0333 0-3.5806-1.3456-5.2227h-2.0982zm-3.1017 2.6456v-15.965h6.6139q3.2385 2.8736 3.2385 7.7999 0 4.9034-3.0333 8.1648z"/>
  <path d="m70.133 42.685h5.4736v2.7368h-4.3789l-0.06842 0.13684 3.6491 6.6595q1.1175 2.007 1.1175 3.0561 0 2.3035-1.528 3.3754h-6.0437v-2.6456h4.721l0.06842-0.13684-4.1052-7.3665q-0.88946-1.5965-0.88946-2.6 0-2.3719 1.9842-3.2157z"/>
  <path d="m80.869 45.422v5.7016h2.0298q1.2544-1.0263 1.2544-3.0105 0-0.84384-0.3421-1.5965-0.31929-0.75262-0.77542-1.0947zm-3.0789 13.228v-15.965h6.1806q1.5508 0.6842 2.4403 2.0982 0.91226 1.414 0.91226 3.307 0 1.8701-0.93507 3.4666-0.93507 1.5965-2.7596 2.2579h-2.7596v4.835z"/>
  <path d="m95.025 58.65-0.47894-2.5315h-3.6034l-0.47894 2.5315h-3.1017l3.0789-15.965h4.721l2.9192 15.965zm-2.3263-13-0.88946 5.3139-0.50175 2.714h2.8508l-0.52455-2.714-0.88946-5.3139z"/>
  <path d="m100.86 45.422h-3.4438v-2.7368h9.9893v2.7368h-3.4438v13.228h-3.1017z"/>
  <path d="m108.99 58.65v-15.965h3.1245v15.965z"/>
  <path d="m121.37 58.65-0.47893-2.5315h-3.6034l-0.47894 2.5315h-3.1017l3.0789-15.965h4.721l2.9192 15.965zm-2.3263-13-0.88946 5.3139-0.50174 2.714h2.8508l-0.52455-2.714-0.88946-5.3139z"/>
  <path d="m126.02 58.65v-15.965h3.1245v13.319h4.7438v2.6456z"/>
 </g>
</svg>
