<?xml version="1.0" encoding="UTF-8"?>
<svg width="63.5mm" height="63.5mm" version="1.1" viewBox="0 0 63.5 63.5" xmlns="http://www.w3.org/2000/svg">
 <g transform="translate(-1.9073e-6 1.9073e-6)">
  <circle cx="31.75" cy="31.75" r="31.75" fill="#808080"/>
  <circle cx="31.75" cy="31.75" r="29.104"/>
  <path d="m7.9375 15.875h7.9375l13.229 13.229h5.2917l13.229-13.229h7.9375v18.521l-21.167 21.167v-2.6458h-5.2917v2.6458l-21.167-21.167v-18.521" fill="#808080"/>
  <g transform="translate(-5.2917 2.6458)" fill="#fff">
   <path d="m13.229 31.75v5.2917l18.521 18.521h2.6458v-2.6458z"/>
   <path d="m18.521 15.875v10.583h10.583z"/>
   <path d="m55.562 15.875-10.583 10.583h10.583z"/>
   <path d="m60.854 31.75v5.2917l-18.521 18.521h-2.6458v-2.6458z"/>
  </g>
  <g transform="translate(-5.2917 2.6458)">
   <rect x="23.812" y="34.396" width="5.2917" height="5.2917"/>
   <rect x="44.979" y="34.396" width="5.2917" height="5.2917"/>
   <rect x="34.396" y="50.271" width="5.2917" height="5.2917"/>
  </g>
 </g>
</svg>
